<svg xmlns="http://www.w3.org/2000/svg" width="50" height="50" viewBox="0 0 50 50">
  <g id="Grupo_9" data-name="Grupo 9" transform="translate(-257 -131)">
    <circle id="Elipse_3" data-name="Elipse 3" cx="25" cy="25" r="25" transform="translate(257 131)" fill="#e2e7ea"/>
    <g id="setting-5-svgrepo-com" transform="translate(269.125 142.795)">
      <path id="Trazado_158" data-name="Trazado 158" d="M16.462,31.409A1.388,1.388,0,0,1,15.1,30.227a1.52,1.52,0,0,0-1.01-1.175,10.726,10.726,0,0,1-1.243-.528,1.44,1.44,0,0,0-1.5.1A1.329,1.329,0,0,1,9.6,28.476L7.777,26.6a1.484,1.484,0,0,1-.151-1.877,1.617,1.617,0,0,0,.118-1.579,11.1,11.1,0,0,1-.416-1.087A1.606,1.606,0,0,0,6.1,20.93a1.483,1.483,0,0,1-1.227-1.464V17.126a1.7,1.7,0,0,1,1.4-1.7,1.851,1.851,0,0,0,1.361-1.145q.1-.251.221-.5a1.928,1.928,0,0,0-.112-1.932,1.742,1.742,0,0,1,.173-2.205L9.256,8.273a1.875,1.875,0,0,1,2.465-.208l.042.03a1.98,1.98,0,0,0,1.92.189A2.072,2.072,0,0,0,14.991,6.72l.018-.064A1.939,1.939,0,0,1,16.907,5h1.619a1.994,1.994,0,0,1,1.953,1.7l.029.132a2.007,2.007,0,0,0,1.243,1.509,1.926,1.926,0,0,0,1.887-.189l.092-.068a1.924,1.924,0,0,1,2.533.209L27.5,9.559a1.874,1.874,0,0,1,.184,2.371,2.094,2.094,0,0,0-.134,2.054l.079.189a2.02,2.02,0,0,0,1.482,1.241,1.839,1.839,0,0,1,1.516,1.822v2.1a1.622,1.622,0,0,1-1.332,1.611,1.769,1.769,0,0,0-1.341,1.222q-.129.377-.287.755a1.771,1.771,0,0,0,.144,1.7,1.613,1.613,0,0,1-.162,2.043l-1.712,1.758a1.388,1.388,0,0,1-1.824.153,1.5,1.5,0,0,0-1.582-.094,10.711,10.711,0,0,1-1.1.485,1.573,1.573,0,0,0-1.015,1.209,1.434,1.434,0,0,1-1.394,1.234Z" transform="translate(-4.875 -5)" fill="none" stroke="#264e71" stroke-linecap="round" stroke-linejoin="round" stroke-width="2.5" fill-rule="evenodd"/>
      <path id="Trazado_159" data-name="Trazado 159" d="M18.007,14.068a4.292,4.292,0,1,1-4.291-4.4A4.347,4.347,0,0,1,18.007,14.068Z" transform="translate(-0.842 -0.863)" fill="none" stroke="#264e71" stroke-linecap="round" stroke-linejoin="round" stroke-width="2.5" fill-rule="evenodd"/>
    </g>
  </g>
</svg>
