<svg xmlns="http://www.w3.org/2000/svg" xmlns:xlink="http://www.w3.org/1999/xlink" width="65" height="65" viewBox="0 0 65 65">
  <defs>
    <filter id="Elipse_1" x="0" y="0" width="65" height="65" filterUnits="userSpaceOnUse">
      <feOffset dy="3" input="SourceAlpha"/>
      <feGaussianBlur stdDeviation="3" result="blur"/>
      <feFlood flood-opacity="0.161"/>
      <feComposite operator="in" in2="blur"/>
      <feComposite in="SourceGraphic"/>
    </filter>
    <filter id="Elipse_1-2" x="0" y="0" width="65" height="65" filterUnits="userSpaceOnUse">
      <feOffset dy="3" input="SourceAlpha"/>
      <feGaussianBlur stdDeviation="3" result="blur-2"/>
      <feFlood flood-opacity="0.161"/>
      <feComposite operator="in" in2="blur-2"/>
      <feComposite in="SourceGraphic"/>
    </filter>
  </defs>
  <g id="Grupo_273" data-name="Grupo 273" transform="translate(-3463 -5085)">
    <g id="Grupo_268" data-name="Grupo 268" transform="translate(3472 5091)">
      <g transform="matrix(1, 0, 0, 1, -9, -6)" filter="url(#Elipse_1)">
        <circle id="Elipse_1-3" data-name="Elipse 1" cx="23.5" cy="23.5" r="23.5" transform="translate(9 6)" fill="#fff"/>
      </g>
    </g>
    <g id="Grupo_269" data-name="Grupo 269" transform="translate(3472 5091)">
      <g transform="matrix(1, 0, 0, 1, -9, -6)" filter="url(#Elipse_1-2)">
        <circle id="Elipse_1-4" data-name="Elipse 1" cx="23.5" cy="23.5" r="23.5" transform="translate(9 6)" fill="#fff"/>
      </g>
    </g>
    <g id="Icon_feather-edit-3" data-name="Icon feather-edit-3" transform="translate(3481.5 5100.682)">
      <path id="Trazado_363" data-name="Trazado 363" d="M18,30h8.871" transform="translate(-4.629 -8.807)" fill="none" stroke="#a28ff0" stroke-linecap="round" stroke-linejoin="round" stroke-width="2"/>
      <path id="Trazado_364" data-name="Trazado 364" d="M17.806,4.93a2.091,2.091,0,0,1,2.957,2.957L8.443,20.208,4.5,21.193l.986-3.943Z" transform="translate(0 0)" fill="none" stroke="#a28ff0" stroke-linecap="round" stroke-linejoin="round" stroke-width="2"/>
    </g>
  </g>
</svg>
