<svg xmlns="http://www.w3.org/2000/svg" xmlns:xlink="http://www.w3.org/1999/xlink" width="65" height="65" viewBox="0 0 65 65">
  <defs>
    <filter id="Elipse_1" x="0" y="0" width="65" height="65" filterUnits="userSpaceOnUse">
      <feOffset dy="3" input="SourceAlpha"/>
      <feGaussianBlur stdDeviation="3" result="blur"/>
      <feFlood flood-opacity="0.161"/>
      <feComposite operator="in" in2="blur"/>
      <feComposite in="SourceGraphic"/>
    </filter>
    <filter id="Elipse_1-2" x="0" y="0" width="65" height="65" filterUnits="userSpaceOnUse">
      <feOffset dy="3" input="SourceAlpha"/>
      <feGaussianBlur stdDeviation="3" result="blur-2"/>
      <feFlood flood-opacity="0.161"/>
      <feComposite operator="in" in2="blur-2"/>
      <feComposite in="SourceGraphic"/>
    </filter>
  </defs>
  <g id="Grupo_274" data-name="Grupo 274" transform="translate(-3463 -5025)">
    <g id="Grupo_266" data-name="Grupo 266" transform="translate(3472 5031)">
      <g transform="matrix(1, 0, 0, 1, -9, -6)" filter="url(#Elipse_1)">
        <circle id="Elipse_1-3" data-name="Elipse 1" cx="23.5" cy="23.5" r="23.5" transform="translate(9 6)" fill="#fff"/>
      </g>
    </g>
    <g id="Grupo_267" data-name="Grupo 267" transform="translate(3472 5031)">
      <g transform="matrix(1, 0, 0, 1, -9, -6)" filter="url(#Elipse_1-2)">
        <circle id="Elipse_1-4" data-name="Elipse 1" cx="23.5" cy="23.5" r="23.5" transform="translate(9 6)" fill="#fff"/>
      </g>
    </g>
    <path id="Icon_ionic-md-heart-empty" data-name="Icon ionic-md-heart-empty" d="M20.851,4.5a7.13,7.13,0,0,0-5.424,2.544A7.13,7.13,0,0,0,10,4.5a6.553,6.553,0,0,0-6.629,6.669c0,4.607,4.1,8.3,10.3,14.005l1.75,1.576,1.75-1.576c6.206-5.7,10.3-9.4,10.3-14.005A6.553,6.553,0,0,0,20.851,4.5ZM16.169,23.581l-.243.226-.5.452-.5-.452-.243-.226a73.652,73.652,0,0,1-7.11-7.069C5.954,14.5,5.235,12.856,5.235,11.169A4.82,4.82,0,0,1,6.608,7.733,4.716,4.716,0,0,1,10,6.354a5.314,5.314,0,0,1,4,1.883l1.42,1.686,1.42-1.686a5.3,5.3,0,0,1,4-1.883,4.739,4.739,0,0,1,3.4,1.379,4.83,4.83,0,0,1,1.373,3.436c0,1.68-.724,3.332-2.341,5.343A73.8,73.8,0,0,1,16.169,23.581Z" transform="translate(3479.716 5038.771)" fill="#a28ff0"/>
  </g>
</svg>
