<svg xmlns="http://www.w3.org/2000/svg" width="34" height="31.385" viewBox="0 0 34 31.385">
  <path id="Icon_ionic-md-heart-empty" data-name="Icon ionic-md-heart-empty" d="M28.025,4.5a10.057,10.057,0,0,0-7.65,3.588A10.057,10.057,0,0,0,12.725,4.5a9.243,9.243,0,0,0-9.35,9.407c0,6.5,5.778,11.712,14.532,19.754l2.468,2.223,2.468-2.223C31.6,25.619,37.375,20.4,37.375,13.907A9.243,9.243,0,0,0,28.025,4.5Zm-6.6,26.914-.343.319-.7.637-.7-.637-.343-.319A103.885,103.885,0,0,1,9.3,21.443C7.012,18.607,6,16.286,6,13.907A6.8,6.8,0,0,1,7.936,9.061a6.651,6.651,0,0,1,4.789-1.945,7.5,7.5,0,0,1,5.648,2.656l2,2.378,2-2.378a7.468,7.468,0,0,1,5.648-2.656,6.684,6.684,0,0,1,4.8,1.945,6.812,6.812,0,0,1,1.937,4.847c0,2.37-1.022,4.7-3.3,7.536A104.1,104.1,0,0,1,21.421,31.414Z" transform="translate(-3.375 -4.5)" fill="#a28ff0"/>
</svg>
