<svg xmlns="http://www.w3.org/2000/svg" xmlns:xlink="http://www.w3.org/1999/xlink" width="65" height="65" viewBox="0 0 65 65">
  <defs>
    <filter id="Elipse_1" x="0" y="0" width="65" height="65" filterUnits="userSpaceOnUse">
      <feOffset dy="3" input="SourceAlpha"/>
      <feGaussianBlur stdDeviation="3" result="blur"/>
      <feFlood flood-opacity="0.161"/>
      <feComposite operator="in" in2="blur"/>
      <feComposite in="SourceGraphic"/>
    </filter>
    <filter id="Elipse_1-2" x="0" y="0" width="65" height="65" filterUnits="userSpaceOnUse">
      <feOffset dy="3" input="SourceAlpha"/>
      <feGaussianBlur stdDeviation="3" result="blur-2"/>
      <feFlood flood-opacity="0.161"/>
      <feComposite operator="in" in2="blur-2"/>
      <feComposite in="SourceGraphic"/>
    </filter>
  </defs>
  <g id="Grupo_272" data-name="Grupo 272" transform="translate(-3532 -5085)">
    <g id="Grupo_270" data-name="Grupo 270" transform="translate(3541 5091)">
      <g transform="matrix(1, 0, 0, 1, -9, -6)" filter="url(#Elipse_1)">
        <circle id="Elipse_1-3" data-name="Elipse 1" cx="23.5" cy="23.5" r="23.5" transform="translate(9 6)" fill="#fff"/>
      </g>
    </g>
    <g id="Grupo_271" data-name="Grupo 271" transform="translate(3541 5091)">
      <g transform="matrix(1, 0, 0, 1, -9, -6)" filter="url(#Elipse_1-2)">
        <circle id="Elipse_1-4" data-name="Elipse 1" cx="23.5" cy="23.5" r="23.5" transform="translate(9 6)" fill="#fff"/>
      </g>
    </g>
    <path id="Icon_material-history" data-name="Icon material-history" d="M16.125,4.5A10.97,10.97,0,0,0,5.156,15.469H1.5L6.241,20.21l.085.171,4.924-4.912H7.594A8.572,8.572,0,1,1,10.1,21.489L8.374,23.22A10.966,10.966,0,1,0,16.125,4.5Zm-1.219,6.094v6.094l5.216,3.1L21,18.308l-4.266-2.535v-5.18Z" transform="translate(3548.5 5098.5)" fill="#a28ff0"/>
  </g>
</svg>
