<svg xmlns="http://www.w3.org/2000/svg" xmlns:xlink="http://www.w3.org/1999/xlink" width="65" height="65" viewBox="0 0 65 65">
  <defs>
    <filter id="Elipse_1" x="0" y="0" width="65" height="65" filterUnits="userSpaceOnUse">
      <feOffset dy="3" input="SourceAlpha"/>
      <feGaussianBlur stdDeviation="3" result="blur"/>
      <feFlood flood-opacity="0.161"/>
      <feComposite operator="in" in2="blur"/>
      <feComposite in="SourceGraphic"/>
    </filter>
    <filter id="Elipse_1-2" x="0" y="0" width="65" height="65" filterUnits="userSpaceOnUse">
      <feOffset dy="3" input="SourceAlpha"/>
      <feGaussianBlur stdDeviation="3" result="blur-2"/>
      <feFlood flood-opacity="0.161"/>
      <feComposite operator="in" in2="blur-2"/>
      <feComposite in="SourceGraphic"/>
    </filter>
  </defs>
  <g id="Grupo_277" data-name="Grupo 277" transform="translate(-3532 -5085)">
    <g id="Grupo_270" data-name="Grupo 270" transform="translate(3541 5091)">
      <g transform="matrix(1, 0, 0, 1, -9, -6)" filter="url(#Elipse_1)">
        <circle id="Elipse_1-3" data-name="Elipse 1" cx="23.5" cy="23.5" r="23.5" transform="translate(9 6)" fill="#fff"/>
      </g>
    </g>
    <g id="Grupo_271" data-name="Grupo 271" transform="translate(3541 5091)">
      <g transform="matrix(1, 0, 0, 1, -9, -6)" filter="url(#Elipse_1-2)">
        <circle id="Elipse_1-4" data-name="Elipse 1" cx="23.5" cy="23.5" r="23.5" transform="translate(9 6)" fill="#fff"/>
      </g>
    </g>
    <g id="Icon_feather-log-out" data-name="Icon feather-log-out" transform="translate(3553.236 5099.736)">
      <path id="Trazado_365" data-name="Trazado 365" d="M11.342,25.027H6.781A2.281,2.281,0,0,1,4.5,22.747V6.781A2.281,2.281,0,0,1,6.781,4.5h4.562" fill="none" stroke="#a28ff0" stroke-linecap="round" stroke-linejoin="round" stroke-width="2"/>
      <path id="Trazado_366" data-name="Trazado 366" d="M24,21.9l5.7-5.7L24,10.5" transform="translate(-7.675 -1.438)" fill="none" stroke="#a28ff0" stroke-linecap="round" stroke-linejoin="round" stroke-width="2"/>
      <path id="Trazado_367" data-name="Trazado 367" d="M27.185,18H13.5" transform="translate(-5.158 -3.236)" fill="none" stroke="#a28ff0" stroke-linecap="round" stroke-linejoin="round" stroke-width="2"/>
    </g>
  </g>
</svg>
