<svg xmlns="http://www.w3.org/2000/svg" width="56.939" height="59.695" viewBox="0 0 56.939 59.695">
  <g id="reshot-icon-mail-PJ4WCQRVUA" transform="translate(0)">
    <path id="Trazado_80" data-name="Trazado 80" d="M71.109,125.283l7.21,4.059-.743,2.352-52.386-.018-1.852-2.415,11.087-6.436,31.253-.715Z" transform="translate(-21.995 -107.874)" fill="#9db2c3"/>
    <g id="Grupo_15" data-name="Grupo 15" transform="translate(1.251 21.427)">
      <rect id="Rect치ngulo_35" data-name="Rect치ngulo 35" width="55.059" height="3.585" fill="#b0c4d3"/>
      <path id="Trazado_81" data-name="Trazado 81" d="M23.871,255.819H76.278a1.326,1.326,0,0,0,1.326-1.326V230.664H22.545v23.829A1.326,1.326,0,0,0,23.871,255.819Z" transform="translate(-22.545 -225.198)" fill="#b0c4d3"/>
    </g>
    <path id="Trazado_82" data-name="Trazado 82" d="M200.912,291.056v-2.412a8.915,8.915,0,0,0-.4-2.628.94.94,0,0,0-1.8.554,7.033,7.033,0,0,1,.313,2.074v2.412H184.736v-2.412a7.153,7.153,0,0,1,7.179-7.11,7.347,7.347,0,0,1,2.245.359.94.94,0,1,0,.582-1.789,9.249,9.249,0,0,0-2.827-.452,9.036,9.036,0,0,0-9.06,8.991v2.412h-.191V299.1h18.808v-8.039h-.56Z" transform="translate(-162.745 -247.047)" fill="#9db2c3"/>
    <rect id="Rect치ngulo_36" data-name="Rect치ngulo 36" width="31.222" height="20.438" transform="translate(12.815 0.94)" fill="#d3e6f1"/>
    <path id="Trazado_83" data-name="Trazado 83" d="M193.084,370.292H174.777v15.456h18.808V370.292Z" transform="translate(-155.777 -327.119)" fill="#8ab0d3"/>
    <path id="Trazado_84" data-name="Trazado 84" d="M167.278,283.941V299.4a.94.94,0,0,0,.94.94h18.808a.94.94,0,0,0,.94-.94V283.941a.94.94,0,0,0-.94-.94h-.507a.962.962,0,0,0,.006-.1V281.4a8.956,8.956,0,0,0-.4-2.64.94.94,0,0,0-1.8.554,7.074,7.074,0,0,1,.313,2.086V282.9a.934.934,0,0,0,.006.1H170.344a.963.963,0,0,0,.006-.1V281.4a7.158,7.158,0,0,1,7.179-7.12,7.343,7.343,0,0,1,2.245.35.94.94,0,1,0,.582-1.789,9.245,9.245,0,0,0-2.827-.442,9.041,9.041,0,0,0-9.06,9V282.9a.933.933,0,0,0,.006.1h-.256A.94.94,0,0,0,167.278,283.941Zm18.808,14.515H169.159V284.882h16.927Z" transform="translate(-149.153 -240.642)" fill="#264e71"/>
    <path id="Trazado_85" data-name="Trazado 85" d="M12.759,173.878h14.4a.94.94,0,1,0,0-1.881H13.7V148.221H66.876V172H53.483a.94.94,0,1,0,0,1.881H67.817a.94.94,0,0,0,.94-.94V142.316a.94.94,0,0,0-.94-.94h-.05l-6.254-3.462a.94.94,0,1,0-.911,1.645l3.281,1.816H59.755a.94.94,0,1,0,0,1.881h7.121v3.083H13.7v-3.083h7.168a.94.94,0,1,0,0-1.881H16.476l4.091-2.273a.94.94,0,1,0-.913-1.644l-7.059,3.921-.023.014a.941.941,0,0,0-.753.922v30.621A.941.941,0,0,0,12.759,173.878Z" transform="translate(-11.818 -121.328)" fill="#264e71"/>
    <path id="Trazado_86" data-name="Trazado 86" d="M146.9,21.817a.94.94,0,0,0,.94-.94V.94A.94.94,0,0,0,146.9,0H115.683a.94.94,0,0,0-.94.94V20.876a.94.94,0,0,0,1.881,0v-19h29.34v19A.94.94,0,0,0,146.9,21.817Z" transform="translate(-102.743 0)" fill="#264e71"/>
    <path id="Trazado_87" data-name="Trazado 87" d="M166.763,53.952a.941.941,0,0,0-1.33,0L162.6,56.788l-.886-.886a.94.94,0,1,0-1.33,1.33l1.551,1.551a.94.94,0,0,0,1.33,0l3.5-3.5A.941.941,0,0,0,166.763,53.952Z" transform="translate(-142.817 -47.418)" fill="#264e71"/>
    <path id="Trazado_88" data-name="Trazado 88" d="M165.434,120.362,162.6,123.2l-.886-.886a.94.94,0,1,0-1.33,1.33l1.551,1.551a.94.94,0,0,0,1.33,0l3.5-3.5a.94.94,0,0,0-1.33-1.33Z" transform="translate(-142.817 -106.085)" fill="#264e71"/>
    <path id="Trazado_89" data-name="Trazado 89" d="M256.873,68.692H246.152a.94.94,0,1,0,0,1.881h10.721a.94.94,0,0,0,0-1.881Z" transform="translate(-218 -60.683)" fill="#264e71"/>
    <path id="Trazado_90" data-name="Trazado 90" d="M256.873,135.1H246.152a.94.94,0,1,0,0,1.881h10.721a.94.94,0,1,0,0-1.881Z" transform="translate(-218 -119.349)" fill="#264e71"/>
    <path id="Trazado_91" data-name="Trazado 91" d="M231.859,420.4a.94.94,0,0,0,1.33,0l3.5-3.5a.94.94,0,1,0-1.33-1.33l-2.837,2.837-.886-.886a.94.94,0,1,0-1.33,1.33Z" transform="translate(-204.591 -366.878)" fill="#264e71"/>
  </g>
</svg>
