<svg xmlns="http://www.w3.org/2000/svg" width="29.088" height="35.6" viewBox="0 0 29.088 35.6">
  <g id="SVGRepo_iconCarrier" transform="translate(0.3 0.3)">
    <path id="Trazado_60" data-name="Trazado 60" d="M14.149,1.25h6.69a44.634,44.634,0,0,1,5.432.19,6.052,6.052,0,0,1,3.679,1.6,6.051,6.051,0,0,1,1.6,3.679,44.659,44.659,0,0,1,.19,5.432v13.2a44.66,44.66,0,0,1-.19,5.432,6.052,6.052,0,0,1-1.6,3.679,6.052,6.052,0,0,1-3.679,1.6,44.663,44.663,0,0,1-5.432.19h-6.69a44.662,44.662,0,0,1-5.432-.19,6.051,6.051,0,0,1-3.679-1.6,6.052,6.052,0,0,1-1.6-3.679,44.634,44.634,0,0,1-.19-5.432v-13.2a44.633,44.633,0,0,1,.19-5.432,6.051,6.051,0,0,1,1.6-3.679,6.051,6.051,0,0,1,3.679-1.6A44.633,44.633,0,0,1,14.149,1.25ZM8.134,4.034a2.873,2.873,0,0,0-1.369.731,3.67,3.67,0,0,0-.9,2.278,43.73,43.73,0,0,0-.168,5.2v12.9a6.1,6.1,0,0,1,1.916-.892,4.779,4.779,0,0,1,.525-.108Zm2.442-.3V24.041H29.3v-11.8a43.754,43.754,0,0,0-.168-5.2,3.67,3.67,0,0,0-.9-2.278,3.67,3.67,0,0,0-2.278-.9,43.731,43.731,0,0,0-5.2-.168H14.238C12.761,3.692,11.565,3.693,10.576,3.735ZM29.3,26.483H20.343v4.571a4.437,4.437,0,0,1-.034.661,1.525,1.525,0,0,1-.723,1.112,1.559,1.559,0,0,1-1.274.117,4.954,4.954,0,0,1-.616-.258l-.04-.019-1.79-.85-1.79.85-.04.019a4.946,4.946,0,0,1-.616.258,1.559,1.559,0,0,1-1.274-.117,1.525,1.525,0,0,1-.723-1.112,4.452,4.452,0,0,1-.034-.661c0-.015,0-.03,0-.044V26.483h-.573a11.549,11.549,0,0,0-2.576.125,3.663,3.663,0,0,0-2.5,2.316c.025.576.064,1.082.124,1.535a3.67,3.67,0,0,0,.9,2.278,3.67,3.67,0,0,0,2.278.9,43.754,43.754,0,0,0,5.2.168H20.75a43.756,43.756,0,0,0,5.2-.168,3.67,3.67,0,0,0,2.278-.9,3.67,3.67,0,0,0,.9-2.278A32.706,32.706,0,0,0,29.3,26.483Zm-15.464,0v3.6l1.22-.579.014-.007a1.613,1.613,0,0,1,1.6,0l.014.007,1.22.579v-3.6Z" transform="translate(-3.25 -1.25)" fill="#7b5ff1" stroke="#7b5ff1" stroke-width="0.6" fill-rule="evenodd"/>
  </g>
</svg>
