<svg xmlns="http://www.w3.org/2000/svg" width="48.626" height="36.01" viewBox="0 0 48.626 36.01">
  <g id="SVGRepo_iconCarrier" transform="translate(0.513 0.506)">
    <path id="Trazado_59" data-name="Trazado 59" d="M28.364,15.062a1.2,1.2,0,0,0-.76,0L9.81,20.992a1.2,1.2,0,0,0-.632.492L4.441,27.565a1.2,1.2,0,0,0,.568,1.878L9,30.772,9,41.14a3.6,3.6,0,0,0,2.464,3.417l16.073,5.358a1.217,1.217,0,0,0,.9,0l16.072-5.357a3.6,3.6,0,0,0,2.464-3.418V30.774l3.994-1.331a1.2,1.2,0,0,0,.568-1.878l-4.8-6.16a1.2,1.2,0,0,0-.577-.413ZM10.62,23.541,26,28.666l-3.241,4.16L7.38,27.7Zm17.366,3.254L41.98,22.132l-14-4.664L13.991,22.13ZM11.4,41.139l0-9.566,11.4,3.8a1.2,1.2,0,0,0,1.327-.4l2.653-3.406V47.13L12.225,42.278A1.2,1.2,0,0,1,11.4,41.139ZM44.57,31.574l-11.4,3.8a1.2,1.2,0,0,1-1.327-.4L29.187,31.56l0,15.571,14.557-4.852a1.2,1.2,0,0,0,.821-1.139ZM33.218,32.826l-3.242-4.161L45.353,23.54,48.595,27.7Z" transform="translate(-4.187 -15)" fill="#7b5ff1" stroke="#7b5ff1" stroke-width="1.008" fill-rule="evenodd"/>
  </g>
</svg>
