<svg xmlns="http://www.w3.org/2000/svg" xmlns:xlink="http://www.w3.org/1999/xlink" width="65" height="65" viewBox="0 0 65 65">
  <defs>
    <filter id="Elipse_1" x="0" y="0" width="65" height="65" filterUnits="userSpaceOnUse">
      <feOffset dy="3" input="SourceAlpha"/>
      <feGaussianBlur stdDeviation="3" result="blur"/>
      <feFlood flood-opacity="0.161"/>
      <feComposite operator="in" in2="blur"/>
      <feComposite in="SourceGraphic"/>
    </filter>
    <filter id="Elipse_1-2" x="0" y="0" width="65" height="65" filterUnits="userSpaceOnUse">
      <feOffset dy="3" input="SourceAlpha"/>
      <feGaussianBlur stdDeviation="3" result="blur-2"/>
      <feFlood flood-opacity="0.161"/>
      <feComposite operator="in" in2="blur-2"/>
      <feComposite in="SourceGraphic"/>
    </filter>
  </defs>
  <g id="Grupo_272" data-name="Grupo 272" transform="translate(-3532 -5085)">
    <g id="Grupo_270" data-name="Grupo 270" transform="translate(3541 5091)">
      <g transform="matrix(1, 0, 0, 1, -9, -6)" filter="url(#Elipse_1)">
        <circle id="Elipse_1-3" data-name="Elipse 1" cx="23.5" cy="23.5" r="23.5" transform="translate(9 6)" fill="#fff"/>
      </g>
    </g>
    <g id="Grupo_271" data-name="Grupo 271" transform="translate(3541 5091)">
      <g transform="matrix(1, 0, 0, 1, -9, -6)" filter="url(#Elipse_1-2)">
        <circle id="Elipse_1-4" data-name="Elipse 1" cx="23.5" cy="23.5" r="23.5" transform="translate(9 6)" fill="#fff"/>
      </g>
    </g>
    <g id="SVGRepo_iconCarrier" transform="translate(3550.031 5103.861)">
      <path id="Trazado_59" data-name="Trazado 59" d="M18.885,15.037a.73.73,0,0,0-.462,0L7.605,18.643a.729.729,0,0,0-.384.3l-2.88,3.7a.73.73,0,0,0,.345,1.141l2.426.809,0,6.3a2.19,2.19,0,0,0,1.5,2.077l9.771,3.257a.74.74,0,0,0,.546,0L28.7,32.968a2.19,2.19,0,0,0,1.5-2.078v-6.3l2.428-.809a.73.73,0,0,0,.345-1.141l-2.917-3.745a.729.729,0,0,0-.351-.251ZM8.1,20.192l9.348,3.115-1.97,2.529L6.128,22.721ZM18.656,22.17l8.507-2.835L18.654,16.5l-8.506,2.835ZM8.575,30.891l0-5.815,6.931,2.31a.73.73,0,0,0,.807-.244l1.613-2.071v9.462l-8.85-2.95A.73.73,0,0,1,8.575,30.891Zm20.163-5.815-6.929,2.309A.73.73,0,0,1,21,27.141l-1.616-2.074,0,9.466,8.85-2.95a.73.73,0,0,0,.5-.693Zm-6.9.761-1.971-2.53,9.348-3.115,1.971,2.53Z" transform="translate(-4.187 -15)" fill="#a28ff0" stroke="#a28ff0" stroke-width="0.3" fill-rule="evenodd"/>
    </g>
  </g>
</svg>
