<svg xmlns="http://www.w3.org/2000/svg" width="50" height="50" viewBox="0 0 50 50">
  <g id="Grupo_9" data-name="Grupo 9" transform="translate(-257 -131)">
    <circle id="Elipse_3" data-name="Elipse 3" cx="25" cy="25" r="25" transform="translate(257 131)" fill="#e4e7ea"/>
    <g id="reshot-icon-device-settings-NKHDQSGLFB" transform="translate(265 136)">
      <rect id="Rectángulo_7" data-name="Rectángulo 7" width="41" height="41" fill="none"/>
    </g>
    <g id="users-3-svgrepo-com" transform="translate(263.984 138.484)">
      <path id="Trazado_147" data-name="Trazado 147" d="M16.177,9.171A4.171,4.171,0,1,1,12.005,5,4.171,4.171,0,0,1,16.177,9.171Z" transform="translate(1.839)" fill="none" stroke="#264e71" stroke-linecap="round" stroke-linejoin="round" stroke-width="2.5" fill-rule="evenodd"/>
      <path id="Trazado_148" data-name="Trazado 148" d="M22.187,18.306c0,3.218-3.735,5.841-8.344,5.841S5.5,21.532,5.5,18.306s3.735-5.839,8.344-5.839S22.187,15.081,22.187,18.306Z" transform="translate(0 5.884)" fill="none" stroke="#264e71" stroke-linecap="round" stroke-linejoin="round" stroke-width="2.5" fill-rule="evenodd"/>
      <path id="Trazado_149" data-name="Trazado 149" d="M19.645,10.614a2.5,2.5,0,1,1-.733-1.77A2.5,2.5,0,0,1,19.645,10.614Z" transform="translate(7.201 2.451)" fill="none" stroke="#264e71" stroke-linecap="round" stroke-linejoin="round" stroke-width="2.5" fill-rule="evenodd"/>
      <path id="Trazado_150" data-name="Trazado 150" d="M16.7,21.751a4.649,4.649,0,0,0,5.006-4.173A4.649,4.649,0,0,0,16.7,13.407" transform="translate(8.825 6.612)" fill="none" stroke="#264e71" stroke-linecap="round" stroke-linejoin="round" stroke-width="2.5"/>
    </g>
  </g>
</svg>
