<svg xmlns="http://www.w3.org/2000/svg" width="59.243" height="59.695" viewBox="0 0 59.243 59.695">
  <g id="reshot-icon-businessman-3LUNRF9TJS" transform="translate(0)">
    <ellipse id="Elipse_5" data-name="Elipse 5" cx="9.793" cy="9.793" rx="9.793" ry="9.793" transform="translate(19.712 1.28)" fill="#b0c4d3"/>
    <path id="Trazado_44" data-name="Trazado 44" d="M169.31,257.606v5.83l-26.176-.011.044-18.524a13,13,0,1,1,26-.163v6.578Z" transform="translate(-126.671 -204.72)" fill="#d3e5f1"/>
    <g id="Grupo_11" data-name="Grupo 11" transform="translate(3.328 29.237)">
      <ellipse id="Elipse_6" data-name="Elipse 6" cx="4.096" cy="4.096" rx="4.096" ry="4.096" transform="translate(44.163)" fill="#b0c4d3"/>
      <ellipse id="Elipse_7" data-name="Elipse 7" cx="4.096" cy="4.096" rx="4.096" ry="4.096" fill="#b0c4d3"/>
    </g>
    <rect id="Rect치ngulo_33" data-name="Rect치ngulo 33" width="26.176" height="5.83" transform="translate(16.462 52.887)" fill="#b8d3eb"/>
    <g id="Grupo_12" data-name="Grupo 12" transform="translate(16.462 50.613)">
      <path id="Trazado_45" data-name="Trazado 45" d="M246.187,475.674h0a1.1,1.1,0,0,1,1.1,1.1v2.142h-2.2v-2.142A1.1,1.1,0,0,1,246.187,475.674Z" transform="translate(-233.2 -470.828)" fill="#8ab0d3"/>
      <rect id="Rect치ngulo_34" data-name="Rect치ngulo 34" width="26.176" height="2.41" fill="#8ab0d3"/>
    </g>
    <g id="Grupo_13" data-name="Grupo 13" transform="translate(26.384 13.762)">
      <path id="Trazado_46" data-name="Trazado 46" d="M237.334,261.7h-1.5a1.232,1.232,0,0,1-1.232-1.232l-.439-2.333a.56.56,0,0,1-.011-.135,1.232,1.232,0,0,1,1.23-1.164h2.4a1.232,1.232,0,0,1,1.23,1.164.572.572,0,0,1-.011.135l-.432,2.293a.557.557,0,0,0-.008.083A1.232,1.232,0,0,1,237.334,261.7Z" transform="translate(-233.464 -240.651)" fill="#fff"/>
      <path id="Trazado_47" data-name="Trazado 47" d="M236.006,295.105l-1.227,10.014,2.39,3.424,2.519-3.359-1.421-10.078Z" transform="translate(-234.015 -274.46)" fill="#fff"/>
      <path id="Trazado_48" data-name="Trazado 48" d="M234.472,118.032a3.122,3.122,0,1,1-6.244,0Z" transform="translate(-228.228 -118.032)" fill="#fff"/>
    </g>
    <path id="Trazado_49" data-name="Trazado 49" d="M143.134,262.118l.044-10.423a13.2,13.2,0,0,1,8.28-12.266c-3.782,6.324-5.509,9.591-5.947,22.71Z" transform="translate(-126.671 -211.514)" fill="#e7f2f8"/>
    <path id="Trazado_50" data-name="Trazado 50" d="M143.134,434.032v8.112H145.4c0-3.06.037-5.74.116-8.093" transform="translate(-126.671 -383.428)" fill="#d4e4f2"/>
    <path id="Trazado_51" data-name="Trazado 51" d="M304.572,262.118l-.044-10.423a13.2,13.2,0,0,0-8.28-12.266c3.782,6.324,5.509,9.591,5.947,22.71Z" transform="translate(-261.934 -211.514)" fill="#b0c4d3"/>
    <path id="Trazado_52" data-name="Trazado 52" d="M349.635,434.032v8.112h-2.262c0-3.06-.037-5.74-.116-8.093" transform="translate(-306.996 -383.428)" fill="#8ab0d3"/>
    <path id="Trazado_53" data-name="Trazado 53" d="M233.481,125.419a2.751,2.751,0,0,0,2.5-1.618h-5.009A2.752,2.752,0,0,0,233.481,125.419Z" transform="translate(-204.273 -109.367)" fill="#fff"/>
    <path id="Trazado_54" data-name="Trazado 54" d="M214.523,110.561a5.012,5.012,0,0,0,5.006-5.006,1.129,1.129,0,0,0-1.13-1.13h-7.754a1.129,1.129,0,0,0-1.13,1.13A5.012,5.012,0,0,0,214.523,110.561Zm0-2.259a2.751,2.751,0,0,1-2.5-1.618h5.009A2.751,2.751,0,0,1,214.523,108.3Z" transform="translate(-185.315 -92.25)" fill="#264e71"/>
    <path id="Trazado_55" data-name="Trazado 55" d="M170.947,21.847a10.924,10.924,0,1,0-10.924-10.924A10.936,10.936,0,0,0,170.947,21.847Zm0-19.588a8.665,8.665,0,1,1-8.665,8.665A8.674,8.674,0,0,1,170.947,2.259Z" transform="translate(-141.591 0)" fill="#264e71"/>
    <path id="Trazado_56" data-name="Trazado 56" d="M146.66,220.757a14.145,14.145,0,0,0-14.129,14.129v18.7a1.129,1.129,0,0,0,1.13,1.13h26a1.129,1.129,0,0,0,1.13-1.13v-5.83a1.13,1.13,0,1,0-2.259,0v4.7H134.79V234.886a11.87,11.87,0,1,1,23.74,0v6.578a1.13,1.13,0,0,0,2.259,0v-6.578A14.145,14.145,0,0,0,146.66,220.757Z" transform="translate(-117.305 -195.019)" fill="#264e71"/>
    <path id="Trazado_57" data-name="Trazado 57" d="M403.514,239.793a5.225,5.225,0,1,0,5.225,5.225A5.231,5.231,0,0,0,403.514,239.793Zm0,8.191a2.966,2.966,0,1,1,2.966-2.966A2.97,2.97,0,0,1,403.514,247.984Z" transform="translate(-352.077 -211.835)" fill="#264e71"/>
    <path id="Trazado_58" data-name="Trazado 58" d="M24.733,239.793a5.225,5.225,0,1,0,5.225,5.225A5.231,5.231,0,0,0,24.733,239.793Zm0,8.191a2.966,2.966,0,1,1,2.966-2.966A2.97,2.97,0,0,1,24.733,247.984Z" transform="translate(-17.459 -211.835)" fill="#264e71"/>
    <path id="Trazado_59" data-name="Trazado 59" d="M390.62,199.673H377.265a1.13,1.13,0,0,0,0,2.259H390.62a1.13,1.13,0,1,0,0-2.259Z" transform="translate(-332.506 -176.393)" fill="#264e71"/>
    <path id="Trazado_60" data-name="Trazado 60" d="M390.62,161.489H377.265a1.13,1.13,0,0,0,0,2.259H390.62a1.13,1.13,0,1,0,0-2.259Z" transform="translate(-332.506 -142.661)" fill="#264e71"/>
    <path id="Trazado_61" data-name="Trazado 61" d="M377.265,125.564H390.62a1.13,1.13,0,1,0,0-2.259H377.265a1.13,1.13,0,0,0,0,2.259Z" transform="translate(-332.506 -108.929)" fill="#264e71"/>
    <path id="Trazado_62" data-name="Trazado 62" d="M17.551,200.8a1.129,1.129,0,0,0-1.13-1.13H3.066a1.13,1.13,0,1,0,0,2.259H16.421A1.13,1.13,0,0,0,17.551,200.8Z" transform="translate(-1.936 -176.393)" fill="#264e71"/>
    <path id="Trazado_63" data-name="Trazado 63" d="M3.066,163.747H16.421a1.13,1.13,0,0,0,0-2.259H3.066a1.13,1.13,0,0,0,0,2.259Z" transform="translate(-1.936 -142.66)" fill="#264e71"/>
    <path id="Trazado_64" data-name="Trazado 64" d="M3.066,125.564H16.421a1.13,1.13,0,0,0,0-2.259H3.066a1.13,1.13,0,0,0,0,2.259Z" transform="translate(-1.936 -108.929)" fill="#264e71"/>
  </g>
</svg>
